<svg xmlns="http://www.w3.org/2000/svg" xmlns:xlink="http://www.w3.org/1999/xlink" style="margin:auto;background:0 0;display:block;shape-rendering:auto" width="100" height="100" preserveAspectRatio="xMidYMid" viewBox="0 0 100 100"><g transform="rotate(0 50 50)"><rect width="17" height="5" x="41.5" y="24.5" fill="#6c5ffc" rx="8.5" ry="2.5"><animate attributeName="opacity" begin="-1.3043478260869565s" dur="1.4492753623188404s" keyTimes="0;1" repeatCount="indefinite" values="1;0"/></rect></g><g transform="rotate(36 50 50)"><rect width="17" height="5" x="41.5" y="24.5" fill="#05c3fb" rx="8.5" ry="2.5"><animate attributeName="opacity" begin="-1.1594202898550725s" dur="1.4492753623188404s" keyTimes="0;1" repeatCount="indefinite" values="1;0"/></rect></g><g transform="rotate(72 50 50)"><rect width="17" height="5" x="41.5" y="24.5" fill="#6c5ffc" rx="8.5" ry="2.5"><animate attributeName="opacity" begin="-1.0144927536231882s" dur="1.4492753623188404s" keyTimes="0;1" repeatCount="indefinite" values="1;0"/></rect></g><g transform="rotate(108 50 50)"><rect width="17" height="5" x="41.5" y="24.5" fill="#05c3fb" rx="8.5" ry="2.5"><animate attributeName="opacity" begin="-0.8695652173913043s" dur="1.4492753623188404s" keyTimes="0;1" repeatCount="indefinite" values="1;0"/></rect></g><g transform="rotate(144 50 50)"><rect width="17" height="5" x="41.5" y="24.5" fill="#6c5ffc" rx="8.5" ry="2.5"><animate attributeName="opacity" begin="-0.7246376811594203s" dur="1.4492753623188404s" keyTimes="0;1" repeatCount="indefinite" values="1;0"/></rect></g><g transform="rotate(180 50 50)"><rect width="17" height="5" x="41.5" y="24.5" fill="#05c3fb" rx="8.5" ry="2.5"><animate attributeName="opacity" begin="-0.5797101449275363s" dur="1.4492753623188404s" keyTimes="0;1" repeatCount="indefinite" values="1;0"/></rect></g><g transform="rotate(216 50 50)"><rect width="17" height="5" x="41.5" y="24.5" fill="#6c5ffc" rx="8.5" ry="2.5"><animate attributeName="opacity" begin="-0.43478260869565216s" dur="1.4492753623188404s" keyTimes="0;1" repeatCount="indefinite" values="1;0"/></rect></g><g transform="rotate(252 50 50)"><rect width="17" height="5" x="41.5" y="24.5" fill="#05c3fb" rx="8.5" ry="2.5"><animate attributeName="opacity" begin="-0.2898550724637681s" dur="1.4492753623188404s" keyTimes="0;1" repeatCount="indefinite" values="1;0"/></rect></g><g transform="rotate(288 50 50)"><rect width="17" height="5" x="41.5" y="24.5" fill="#6c5ffc" rx="8.5" ry="2.5"><animate attributeName="opacity" begin="-0.14492753623188406s" dur="1.4492753623188404s" keyTimes="0;1" repeatCount="indefinite" values="1;0"/></rect></g><g transform="rotate(324 50 50)"><rect width="17" height="5" x="41.5" y="24.5" fill="#05c3fb" rx="8.5" ry="2.5"><animate attributeName="opacity" begin="0s" dur="1.4492753623188404s" keyTimes="0;1" repeatCount="indefinite" values="1;0"/></rect></g></svg>